<svg
	id="logo"
	xmlns="http://www.w3.org/2000/svg"
	version="1.1"
	viewBox="0 0 1000 340"
>
	<g>
		<path
			class="cls-1"
			d="M71.5,3.2l-1.6,55.7,36.7-38.1,10.2,10-38.7,36.3,46.9-1v14.4l-46.9-1,38.1,36.3-9.8,10.2-36.5-38.3,1.6,55.7h-15.2l1.4-55.7-36.5,37.7-10-9.6,38.3-36.3-46.9,1v-14.4l46.9,1L10.7,30.9l10.4-10,36.5,38.1-1.4-55.7h15.2Z"
		/>
		<path
			class="cls-1"
			d="M317.6,12.1h15.4l-9,131.5h-19.4l-45.9-109.5-46.9,109.5h-19l-9-131.5h15l7.6,108.4.4-1.4c.6-1.2,1-2.6,1.6-4l.8-1.8c.6-2,1.4-3.8,2.2-5.6L251.8,13.7h13l40.3,94c.2.6.4,1.2.4,1.6s.2.8.4,1.4l2.4,5.6c.2,1,.8,2,1,3l.4,1.4,7.8-108.6Z"
		/>
		<path
			class="cls-1"
			d="M347,93.8c0-25.3,15-50.9,43.9-50.9s42.1,7,42.1,52.9v1.2h-72c.6,23.1,15.4,33.3,30.5,33.3s23.5-4.8,26.3-19.4l.2-.8h16.6l-.4,1.4c-4.2,19.4-22.4,32.1-43.3,32.1-32.5,0-43.9-25.9-43.9-49.7ZM418.4,85c-.6-18.2-14.2-27.9-27.7-27.9s-24.9,7-27.9,26.7l55.5,1.2Z"
		/>
		<path
			class="cls-1"
			d="M604,90.2h15.8c-4.2,33.3-26.7,54.5-60.1,54.5s-67.8-28.1-67.8-68.4,34.3-65.8,66.4-65.8,55.7,15.2,59.7,45.7h-17.8c-2.4-20.4-23.1-30.7-41.3-30.7s-51.5,15.8-51.5,50.7,22.1,54.1,52.3,54.1,41.1-16,44.3-40.3Z"
		/>
		<path
			class="cls-1"
			d="M633.2,116.5c0-16.4,11.4-26.9,34.1-29.7l16.2-2c8.8-.8,16.6-1.6,16.6-11.8-.6-10.4-9.2-17.2-22.4-17.2s-24.5,7.2-24.5,19.4v1l-17.2.4c2.2-20.4,17-34.1,41.9-34.1s35.7,10.4,35.7,30.7v70.4h-19l5.8-14.4c-7.6,11.2-21.3,16.2-34.1,16.2s-33.1-9.2-33.1-28.9ZM666.2,131.1c15.6,0,33.7-9.6,33.7-28.7v-8.4c-5.8,2.6-14,3.8-21.6,4.6-15.4,1.8-30.1,4.4-30.5,19.2,0,9.8,9.8,13.2,18.4,13.2Z"
		/>
		<path
			class="cls-1"
			d="M749.6,143.6h-14.4V44.7h18.2l-6.4,15.4c7.6-12.8,20.6-17.4,30.5-17.4,15.4,0,25.7,4.6,32.3,14.4,5,7.6,5,14,5,22.7v63.7h-14.2v-61.5c0-9.8-3-26.1-22.2-26.1s-28.7,9.2-28.7,35.3v52.3Z"
		/>
	</g>
	<g>
		<path
			class="cls-1"
			d="M114.2,335h-18.8l6-53.1H17.7v53.1H2.5v-132.1h65.6c18.8,0,44.1,3.8,45.5,37.1.4,11.6-3.4,21.4-11.4,28.5h12v66.6ZM17.7,216.5v51.7h49.1c20.8,0,31.1-13.4,31.5-25.7.2-7.8-1.6-13.8-5.6-18-5.2-5.2-14-8-25.9-8H17.7Z"
		/>
		<path
			class="cls-1"
			d="M136,285.3c0-25.3,15-50.9,43.9-50.9s42.1,7,42.1,52.9v1.2h-72c.6,23.1,15.4,33.3,30.5,33.3s23.5-4.8,26.3-19.4l.2-.8h16.6l-.4,1.4c-4.2,19.4-22.4,32.1-43.3,32.1-32.5,0-43.9-25.9-43.9-49.7ZM207.3,276.4c-.6-18.2-14.2-27.9-27.7-27.9s-24.9,7-27.9,26.7l55.5,1.2Z"
		/>
		<path
			class="cls-1"
			d="M256.4,335h-17.2v-131.9h13.2v46.9c7.2-9,19.2-14.8,32.3-14.8,28.5,0,42.9,24.5,42.9,51.1s-16.4,50.1-43.7,50.1-24.3-4.6-31.9-18l4.4,16.6ZM255.2,285.3c0,17.6,8.6,37.1,27.5,38.1h2c19.8,0,28.9-18.8,28.9-36.3s-10.4-38.5-30.1-38.5-28.3,28.1-28.3,36.7Z"
		/>
		<path
			class="cls-1"
			d="M346.4,301.1v-66.4h14.4l-.8,66.2c-.2,13.6,8.8,22.7,22.3,22.7,24.1,0,27.5-22.7,27.5-35.1v-53.7h14.2v100.2h-18.4l7.4-16.6c-5.2,10.6-17.8,18.4-32.1,18.4-22.7,0-34.5-12.2-34.5-35.7Z"
		/>
		<path
			class="cls-1"
			d="M448.7,203.3h17.2v17h-17.2v-17ZM450.1,234.3h14.6v100.6h-14.6v-100.6Z"
		/>
		<path class="cls-1" d="M488,203.3h14.6v131.7h-14.6v-131.7Z" />
		<path
			class="cls-1"
			d="M597.3,318.3c-7.6,13.4-21,18-31.9,18-27.3,0-43.7-18.6-43.7-50.1s14.4-51.1,42.9-51.1,25.1,5.8,32.3,14.8v-46.9h13.2v131.9h-17l4.2-16.6ZM535.7,287.1c0,17.4,9,36.3,28.9,36.3h2c18.8-1,27.5-20.4,27.5-38.1s-1.8-36.7-28.1-36.7-30.3,19.2-30.3,38.5Z"
		/>
	</g>
	<g>
		<path
			class="cls-1"
			d="M798.5,203.1v131.9h-19.4l5.4-61.3h-92l5.2,61.3h-19.2v-131.9h15.6v57.7h88.6v-57.7h15.8Z"
		/>
		<path
			class="cls-1"
			d="M820.9,203.3h17.2v17h-17.2v-17ZM822.3,234.3h14.6v100.6h-14.6v-100.6Z"
		/>
		<path
			class="cls-1"
			d="M877.2,335h-14.2v-100.2h17.8l-6.6,16.2c5-11,17.4-17,31.7-16.2,13,.8,23.1,3.8,28.5,16.8,7-11,17.4-16.8,31.7-16.8,27.9,0,31.5,20.9,31.5,38.9v61.3h-14.4v-64.9c0-10.4-5-21.7-19.2-21.7s-26.5,5.8-26.5,34.3l.2,52.3h-14.6l.2-62.3c0-9-2.6-24.3-19.6-24.3s-26.3,22.3-26.3,35.5v51.1Z"
		/>
	</g>
</svg>
